<svg width="96" height="48" viewBox="0 0 96 48" fill="none" xmlns="http://www.w3.org/2000/svg">
<path d="M62.177 17.4467V19.4673H57.1931V24.4593H63.9129V26.4798H55.0278V11.6044H63.6983V13.625H57.1931V17.4467H62.177Z" fill="#0E103E"/>
<path d="M75.5514 22.649H69.1582L67.5716 26.4707H65.313L71.6035 11.6044H73.1248L79.4153 26.4707H77.1567L75.5514 22.649ZM70.0262 20.6375H74.7114L72.3688 15.1153L70.0262 20.6375Z" fill="#0E103E"/>
<path d="M62.177 38.6855V40.697H57.1931V47.7004H55.0278V32.8433H63.6983V34.8638H57.1931V38.6855H62.177Z" fill="#0E103E"/>
<path d="M66.9929 32.8433C67.7489 32.8433 68.3555 33.4375 68.3555 34.1781C68.3555 34.9187 67.7489 35.4947 66.9929 35.4947C66.2369 35.4947 65.6489 34.9187 65.6489 34.1781C65.6489 33.4375 66.2369 32.8433 66.9929 32.8433ZM65.9756 37.7255H68.0382V47.7095H65.9756V37.7255Z" fill="#0E103E"/>
<path d="M77.3338 39.5084C77.0912 39.4444 76.8579 39.4261 76.5312 39.4261C75.4672 39.4261 74.3379 40.1484 73.7779 41.0992V47.7004H71.7153V37.7255H73.7126V38.8684C74.2073 38.1918 75.2712 37.5061 76.7645 37.5061C76.9792 37.5061 77.3245 37.5244 77.5672 37.5701L77.3338 39.5084Z" fill="#0E103E"/>
<path d="M80.0405 45.049C80.9924 45.7713 82.0378 46.1553 83.0551 46.1553C83.9417 46.1553 84.8283 45.689 84.8283 44.9027C84.8283 43.7598 83.1391 43.6958 81.6458 43.2021C80.4138 42.7998 79.3032 42.0318 79.3032 40.633C79.3032 38.4844 81.2538 37.5153 83.0737 37.5153C84.567 37.5153 85.6497 37.9815 86.4523 38.6215L85.3977 40.0661C84.7723 39.5998 84.035 39.2798 83.2044 39.2798C82.2058 39.2798 81.3658 39.7461 81.3658 40.5324C81.3658 41.209 82.1684 41.4467 83.1857 41.7027C84.791 42.105 86.891 42.809 86.891 44.8661C86.891 46.7587 85.0897 47.9198 83.1017 47.9198C81.4778 47.9198 80.1058 47.4353 78.9858 46.5393L80.0405 45.049Z" fill="#0E103E"/>
<path d="M96.0001 47.7095C95.6081 47.8375 94.9828 47.9198 94.3949 47.9198C93.1162 47.9198 92.1642 47.4718 91.5109 46.7495C90.9043 46.0913 90.6896 45.177 90.6896 44.0981V39.5358H88.0857V37.7347H90.6896V34.9735H92.7522V37.7347H96.0001V39.5358H92.7522V44.2078C92.7522 44.7381 92.7989 45.1861 93.0602 45.4787C93.3402 45.817 93.9282 46.009 94.4695 46.009C94.7775 46.009 95.2908 45.9633 95.5988 45.881L96.0001 47.7095Z" fill="#0E103E"/>
<path d="M44.3321 45.7143C43.0441 45.7143 41.9988 44.6903 41.9988 43.4286V19.4286C41.9988 14.6743 40.2442 10.304 37.3323 6.92114V6.85714H37.2763C33.6924 2.72457 28.3725 0.0822857 22.4367 0C22.3434 0 22.2594 0 22.166 0C22.0727 0 21.9887 0 21.8954 0C15.9596 0.0822857 10.6397 2.72457 7.0558 6.85714H6.9998V6.92114C4.08789 10.304 2.33327 14.6651 2.33327 19.4286V43.4286C2.33327 44.6903 1.28796 45.7143 0 45.7143V48H25.666V43.4286H23.3327V45.7143H13.9996V29.7143H20.9994V32H23.3327V29.7143V27.4286V25.1429H20.9994V27.4286H13.9996V10.3863C13.9996 5.97943 17.5928 2.33143 22.0821 2.28571C26.6179 2.24 30.3325 5.85143 30.3325 10.2857V45.7143H27.9992V48H44.3321V45.7143ZM4.66654 19.4286C4.66654 19.0994 4.67587 19.6754 4.69454 19.3463C4.77853 17.8926 6.9998 17.9657 6.9998 19.4194V45.7143H4.66654V19.4286ZM11.6663 45.7143H9.33307V8.23771C9.33307 7.94514 9.4544 7.65257 9.65973 7.44229C9.66906 7.43314 9.6784 7.424 9.6784 7.424C10.4064 6.70171 11.657 7.20457 11.657 8.21943V45.7143H11.6663ZM39.6656 19.4286V45.7143H37.3323V19.4194C37.3323 17.9657 39.5536 17.8926 39.6376 19.3463C39.6562 19.6754 39.6656 19.0994 39.6656 19.4286ZM34.6444 7.424C34.6537 7.43314 34.663 7.44229 34.663 7.44229C34.8777 7.65257 34.9897 7.936 34.9897 8.23771V45.7143H32.6564V8.21943C32.6658 7.20457 33.9257 6.70171 34.6444 7.424Z" fill="url(#paint0_linear)"/>
<defs>
<linearGradient id="paint0_linear" x1="22.1577" y1="45.5464" x2="21.8951" y2="2.47488" gradientUnits="userSpaceOnUse">
<stop stop-color="#D58665"/>
<stop offset="1" stop-color="#FFBD93"/>
</linearGradient>
</defs>
</svg>
